<svg xmlns="http://www.w3.org/2000/svg" xmlns:xlink="http://www.w3.org/1999/xlink" viewBox="0 0 24 24" version="1.1">
    <g id="surface1">
        <path style=" " d="M 12 2 C 6.488281 2 2 6.488281 2 12 C 2 17.511719 6.488281 22 12 22 C 17.511719 22 22 17.511719 22 12 C 22 6.488281 17.511719 2 12 2 Z M 12 4 C 16.429688 4 20 7.570313 20 12 C 20 13.851563 19.390625 15.554688 18.34375 16.90625 L 15.1875 13.75 C 15.421875 13.332031 15.355469 12.792969 15 12.4375 L 14.4375 11.875 L 18 9 L 15 6 L 12.125 9.5625 L 11.5625 9 C 11.207031 8.644531 10.667969 8.578125 10.25 8.8125 L 7.09375 5.65625 C 8.445313 4.609375 10.148438 4 12 4 Z M 5.65625 7.09375 L 16.90625 18.34375 C 15.554688 19.390625 13.851563 20 12 20 C 7.570313 20 4 16.429688 4 12 C 4 10.148438 4.609375 8.445313 5.65625 7.09375 Z M 10.28125 12.71875 L 7 16 L 7 17 L 8 17 L 11.28125 13.71875 Z "></path>
    </g>
</svg>
