<svg xmlns="http://www.w3.org/2000/svg" viewBox="0 0 24 24">
	<path style="line-height:normal;text-indent:0;text-align:start;text-decoration-line:none;text-decoration-style:solid;text-decoration-color:#000;text-transform:none;block-progression:tb;isolation:auto;mix-blend-mode:normal" d="M 5 2 C 3.895 2 3 2.895 3 4 L 3 6 C 3 7.105 3.895 8 5 8 L 7 8 C 8.105 8 9 7.105 9 6 L 9 4 C 9 2.895 8.105 2 7 2 L 5 2 z M 11 4 L 11 6 L 21 6 L 21 4 L 11 4 z M 5 9 C 3.9069372 9 3 9.9069372 3 11 L 3 13 C 3 14.093063 3.9069372 15 5 15 L 7 15 C 8.0930628 15 9 14.093063 9 13 L 9 11 C 9 9.9069372 8.0930628 9 7 9 L 5 9 z M 5 11 L 7 11 L 7 13 L 5 13 L 5 11 z M 11 11 L 11 13 L 21 13 L 21 11 L 11 11 z M 5 16 C 3.895 16 3 16.895 3 18 L 3 20 C 3 21.105 3.895 22 5 22 L 7 22 C 8.105 22 9 21.105 9 20 L 9 18 C 9 16.895 8.105 16 7 16 L 5 16 z M 11 18 L 11 20 L 21 20 L 21 18 L 11 18 z" font-weight="400" font-family="sans-serif" white-space="normal" overflow="visible"></path>
</svg>