<svg xmlns="http://www.w3.org/2000/svg" xmlns:xlink="http://www.w3.org/1999/xlink" version="1.1" id="Layer_1" x="0px" y="0px" viewBox="0 0 100 100" style="enable-background:new 0 0 100 100;" xml:space="preserve"><g>	<path style="fill:#C7EDE6;" d="M87.215,56.71C88.35,54.555,89,52.105,89,49.5c0-6.621-4.159-12.257-10.001-14.478   C78.999,35.015,79,35.008,79,35c0-11.598-9.402-21-21-21c-9.784,0-17.981,6.701-20.313,15.757C36.211,29.272,34.638,29,33,29   c-7.692,0-14.023,5.793-14.89,13.252C12.906,43.353,9,47.969,9,53.5C9,59.851,14.149,65,20.5,65c0.177,0,0.352-0.012,0.526-0.022   C21.022,65.153,21,65.324,21,65.5C21,76.822,30.178,86,41.5,86c6.437,0,12.175-2.972,15.934-7.614C59.612,80.611,62.64,82,66,82   c4.65,0,8.674-2.65,10.666-6.518C77.718,75.817,78.837,76,80,76c6.075,0,11-4.925,11-11C91,61.689,89.53,58.727,87.215,56.71z"></path></g>    <g>	<g>		<path style="fill:#FDFCEF;" d="M32.875,61.5c0,0,3.64,0,6.125,0s4.5-2.015,4.5-4.5c0-2.333-1.782-4.229-4.055-4.455    C39.467,52.364,39.5,52.187,39.5,52c0-2.485-2.015-4.5-4.5-4.5c-1.438,0-2.703,0.686-3.527,1.736    C31.333,46.6,29.171,44.5,26.5,44.5c-2.761,0-5,2.239-5,5c0,0.446,0.077,0.87,0.187,1.282C21.045,50.005,20.086,49.5,19,49.5    c-1.781,0-3.234,1.335-3.455,3.055C15.364,52.533,15.187,52.5,15,52.5c-2.485,0-4.5,2.015-4.5,4.5s2.015,4.5,4.5,4.5s9.5,0,9.5,0    h5.375V62h3V61.5z"></path>	</g>        <g>		<path style="fill:#472B29;" d="M26.5,44c-3.033,0-5.5,2.467-5.5,5.5c0,0.016,0,0.031,0,0.047C20.398,49.192,19.71,49,19,49    c-1.831,0-3.411,1.261-3.858,3.005C15.095,52.002,15.048,52,15,52c-2.757,0-5,2.243-5,5s2.243,5,5,5h14.875    c0.276,0,0.5-0.224,0.5-0.5s-0.224-0.5-0.5-0.5H15c-2.206,0-4-1.794-4-4s1.794-4,4-4c0.117,0,0.23,0.017,0.343,0.032l0.141,0.019    c0.021,0.003,0.041,0.004,0.062,0.004c0.246,0,0.462-0.185,0.495-0.437C16.232,51.125,17.504,50,19,50    c0.885,0,1.723,0.401,2.301,1.1c0.098,0.118,0.241,0.182,0.386,0.182c0.078,0,0.156-0.018,0.228-0.056    c0.209-0.107,0.314-0.346,0.254-0.573C22.054,50.218,22,49.852,22,49.5c0-2.481,2.019-4.5,4.5-4.5    c2.381,0,4.347,1.872,4.474,4.263c0.011,0.208,0.15,0.387,0.349,0.45c0.05,0.016,0.101,0.024,0.152,0.024    c0.15,0,0.296-0.069,0.392-0.192C32.638,48.563,33.779,48,35,48c2.206,0,4,1.794,4,4c0,0.117-0.017,0.23-0.032,0.343l-0.019,0.141    c-0.016,0.134,0.022,0.268,0.106,0.373c0.084,0.105,0.207,0.172,0.34,0.185C41.451,53.247,43,54.949,43,57c0,2.206-1.794,4-4,4    h-6.125c-0.276,0-0.5,0.224-0.5,0.5s0.224,0.5,0.5,0.5H39c2.757,0,5-2.243,5-5c0-2.397-1.689-4.413-4.003-4.877    C39.999,52.082,40,52.041,40,52c0-2.757-2.243-5-5-5c-1.176,0-2.293,0.416-3.183,1.164C31.219,45.76,29.055,44,26.5,44L26.5,44z"></path>	</g>        <g>		<path style="fill:#472B29;" d="M25,51c-1.403,0-2.609,0.999-2.913,2.341C21.72,53.119,21.301,53,20.875,53    c-1.202,0-2.198,0.897-2.353,2.068C18.319,55.022,18.126,55,17.937,55c-1.529,0-2.811,1.2-2.918,2.732    C15.01,57.87,15.114,57.99,15.251,58c0.006,0,0.012,0,0.018,0c0.13,0,0.24-0.101,0.249-0.232c0.089-1.271,1.151-2.268,2.419-2.268    c0.229,0,0.47,0.042,0.738,0.127c0.022,0.007,0.045,0.01,0.067,0.01c0.055,0,0.11-0.02,0.156-0.054    C18.962,55.537,19,55.455,19,55.375c0-1.034,0.841-1.875,1.875-1.875c0.447,0,0.885,0.168,1.231,0.473    c0.047,0.041,0.106,0.063,0.165,0.063c0.032,0,0.063-0.006,0.093-0.019c0.088-0.035,0.148-0.117,0.155-0.212    C22.623,52.512,23.712,51.5,25,51.5c0.208,0,0.425,0.034,0.682,0.107c0.023,0.007,0.047,0.01,0.07,0.01    c0.109,0,0.207-0.073,0.239-0.182c0.038-0.133-0.039-0.271-0.172-0.309C25.517,51.04,25.256,51,25,51L25,51z"></path>	</g>        <g>		<path style="fill:#472B29;" d="M38.883,52.5c-1.326,0-2.508,0.897-2.874,2.182c-0.038,0.133,0.039,0.271,0.172,0.309    C36.205,54.997,36.228,55,36.25,55c0.109,0,0.209-0.072,0.24-0.182C36.795,53.748,37.779,53,38.883,53    c0.117,0,0.23,0.014,0.342,0.029c0.012,0.002,0.023,0.003,0.035,0.003c0.121,0,0.229-0.092,0.246-0.217    c0.019-0.137-0.077-0.263-0.214-0.281C39.158,52.516,39.022,52.5,38.883,52.5L38.883,52.5z"></path>	</g></g>    <g>	<g>		<path style="fill:#FFFFFF;" d="M83.405,51H73.5c-0.276,0-0.5-0.224-0.5-0.5s0.224-0.5,0.5-0.5h9.905c0.276,0,0.5,0.224,0.5,0.5    S83.682,51,83.405,51z"></path>	</g>        <g>		<path style="fill:#FFFFFF;" d="M86.5,51h-1c-0.276,0-0.5-0.224-0.5-0.5s0.224-0.5,0.5-0.5h1c0.276,0,0.5,0.224,0.5,0.5    S86.777,51,86.5,51z"></path>	</g>        <g>		<path style="fill:#FFFFFF;" d="M91.491,53H82.5c-0.276,0-0.5-0.224-0.5-0.5s0.224-0.5,0.5-0.5h8.991c0.276,0,0.5,0.224,0.5,0.5    S91.767,53,91.491,53z"></path>	</g>        <g>		<path style="fill:#FFFFFF;" d="M80.5,53h-1c-0.276,0-0.5-0.224-0.5-0.5s0.224-0.5,0.5-0.5h1c0.276,0,0.5,0.224,0.5,0.5    S80.777,53,80.5,53z"></path>	</g>        <g>		<path style="fill:#FFFFFF;" d="M77.5,53h-2c-0.276,0-0.5-0.224-0.5-0.5s0.224-0.5,0.5-0.5h2c0.276,0,0.5,0.224,0.5,0.5    S77.777,53,77.5,53z"></path>	</g>        <g>		<path style="fill:#FFFFFF;" d="M83.5,55h-2c-0.276,0-0.5-0.224-0.5-0.5s0.224-0.5,0.5-0.5h2c0.276,0,0.5,0.224,0.5,0.5    S83.776,55,83.5,55z"></path>	</g>        <g>		<path style="fill:#FFFFFF;" d="M86.5,46c-0.177,0-0.823,0-1,0c-0.276,0-0.5,0.224-0.5,0.5c0,0.276,0.224,0.5,0.5,0.5    c0.177,0,0.823,0,1,0c0.276,0,0.5-0.224,0.5-0.5C87,46.224,86.776,46,86.5,46z"></path>	</g>        <g>		<path style="fill:#FFFFFF;" d="M86.5,48c-0.177,0-4.823,0-5,0c-0.276,0-0.5,0.224-0.5,0.5c0,0.276,0.224,0.5,0.5,0.5    c0.177,0,4.823,0,5,0c0.276,0,0.5-0.224,0.5-0.5C87,48.224,86.776,48,86.5,48z"></path>	</g>        <g>		<path style="fill:#FFFFFF;" d="M91.5,50c-0.177,0-2.823,0-3,0c-0.276,0-0.5,0.224-0.5,0.5c0,0.276,0.224,0.5,0.5,0.5    c0.177,0,2.823,0,3,0c0.276,0,0.5-0.224,0.5-0.5C92,50.224,91.776,50,91.5,50z"></path>	</g></g>    <g>	<g>		<path style="fill:#FFFFFF;" d="M53.5,19h-10c-0.276,0-0.5-0.224-0.5-0.5s0.224-0.5,0.5-0.5h10c0.276,0,0.5,0.224,0.5,0.5    S53.776,19,53.5,19z"></path>	</g>        <g>		<path style="fill:#FFFFFF;" d="M57.5,19h-2c-0.276,0-0.5-0.224-0.5-0.5s0.224-0.5,0.5-0.5h2c0.276,0,0.5,0.224,0.5,0.5    S57.776,19,57.5,19z"></path>	</g>        <g>		<path style="fill:#FFFFFF;" d="M62.5,21h-10c-0.276,0-0.5-0.224-0.5-0.5s0.224-0.5,0.5-0.5h10c0.276,0,0.5,0.224,0.5,0.5    S62.777,21,62.5,21z"></path>	</g>        <g>		<path style="fill:#FFFFFF;" d="M50.5,21h-1c-0.276,0-0.5-0.224-0.5-0.5s0.224-0.5,0.5-0.5h1c0.276,0,0.5,0.224,0.5,0.5    S50.776,21,50.5,21z"></path>	</g>        <g>		<path style="fill:#FFFFFF;" d="M47.375,21H45.5c-0.276,0-0.5-0.224-0.5-0.5s0.224-0.5,0.5-0.5h1.875c0.276,0,0.5,0.224,0.5,0.5    S47.651,21,47.375,21z"></path>	</g>        <g>		<path style="fill:#FFFFFF;" d="M56.5,17h-5c-0.276,0-0.5-0.224-0.5-0.5s0.224-0.5,0.5-0.5h5c0.276,0,0.5,0.224,0.5,0.5    S56.777,17,56.5,17z"></path>	</g>        <g>		<path style="fill:#FFFFFF;" d="M53.5,23h-2c-0.276,0-0.5-0.224-0.5-0.5s0.224-0.5,0.5-0.5h2c0.276,0,0.5,0.224,0.5,0.5    S53.776,23,53.5,23z"></path>	</g></g>    <g>	<rect x="50.031" y="37.691" style="fill:#472B29;" width="1" height="9.642"></rect></g>    <g>	<path style="fill:#BD977C;" d="M65.167,58v0.576v16.474c0,1.714-1.47,3.117-3.266,3.117H39.1c-1.796,0-3.266-1.403-3.266-3.117   V58.545V58"></path>        <path style="fill:#472B29;" d="M61.9,78.867H39.1c-2.188,0-3.967-1.713-3.967-3.817V58h1.4v17.05c0,1.333,1.151,2.417,2.566,2.417   H61.9c1.415,0,2.566-1.084,2.566-2.417V58h1.4v17.05C65.867,77.154,64.088,78.867,61.9,78.867z"></path></g>    <g>	<g>		<path style="fill:#F6CCA4;" d="M36.838,59.3c-1.179,0-2.138-0.982-2.138-2.189V51.7h31.6v5.41c0,1.207-0.959,2.189-2.138,2.189    H36.838z"></path>	</g>        <g>		<path style="fill:#472B29;" d="M65.6,52.4v4.71c0,0.822-0.645,1.49-1.438,1.49H36.838c-0.793,0-1.438-0.668-1.438-1.49V52.4H65.6     M66.832,51h-32.56C34.122,51,34,51.125,34,51.277v5.833C34,58.7,35.277,60,36.838,60h27.324C65.723,60,67,58.7,67,57.11v-5.963    C67,51.066,66.925,51,66.832,51L66.832,51z"></path>	</g></g>    <g>	<path style="fill:#472B29;" d="M60.342,75.75H40.658c-1.328,0-2.408-1.008-2.408-2.247v-9.082h0.5v9.082   c0,0.963,0.856,1.747,1.908,1.747h19.684c1.052,0,1.908-0.784,1.908-1.747V70.5c0-0.138,0.112-0.25,0.25-0.25s0.25,0.112,0.25,0.25   v3.003C62.75,74.742,61.67,75.75,60.342,75.75z"></path></g>    <g>	<path style="fill:#472B29;" d="M50.5,75.75c-0.138,0-0.25-0.112-0.25-0.25v-7c0-0.138,0.112-0.25,0.25-0.25s0.25,0.112,0.25,0.25v7   C50.75,75.638,50.638,75.75,50.5,75.75z"></path></g>    <g>	<path style="fill:#472B29;" d="M50.5,63.75c-0.138,0-0.25-0.112-0.25-0.25v-2c0-0.138,0.112-0.25,0.25-0.25s0.25,0.112,0.25,0.25v2   C50.75,63.638,50.638,63.75,50.5,63.75z"></path></g>    <g>	<path style="fill:#472B29;" d="M62.5,68.75c-0.138,0-0.25-0.112-0.25-0.25v-2c0-0.138,0.112-0.25,0.25-0.25s0.25,0.112,0.25,0.25v2   C62.75,68.638,62.638,68.75,62.5,68.75z"></path></g>    <g>	<path style="fill:#FDFCEE;" d="M53.63,66.222h-6.123c-0.594,0-1.081-0.724-1.081-1.611l0,0c0-0.886,0.486-1.611,1.081-1.611h6.123   c0.594,0,1.081,0.724,1.081,1.611l0,0C54.711,65.496,54.224,66.222,53.63,66.222z"></path></g>    <g>	<path style="fill:#472B29;" d="M53.649,66.5h-6.299c-1.021,0-1.851-0.897-1.851-2s0.83-2,1.851-2h6.299   c1.021,0,1.851,0.897,1.851,2S54.67,66.5,53.649,66.5z M47.351,63.5c-0.461,0-0.851,0.458-0.851,1s0.39,1,0.851,1h6.299   c0.461,0,0.851-0.458,0.851-1s-0.39-1-0.851-1H47.351z"></path></g>    <g>	<path style="fill:#472B29;" d="M42.501,72.5c-0.276,0-0.5-0.224-0.5-0.5v-2.5c0-0.276,0.224-0.5,0.5-0.5s0.5,0.224,0.5,0.5V72   C43.001,72.276,42.777,72.5,42.501,72.5z"></path></g>    <g>	<path style="fill:#472B29;" d="M47.5,74h-6c-0.276,0-0.5-0.224-0.5-0.5s0.224-0.5,0.5-0.5h6c0.276,0,0.5,0.224,0.5,0.5   S47.776,74,47.5,74z"></path></g>    <g>	<path style="fill:#472B29;" d="M46.501,72.5c-0.276,0-0.5-0.224-0.5-0.5v-2.5c0-0.276,0.224-0.5,0.5-0.5s0.5,0.224,0.5,0.5V72   C47.001,72.276,46.777,72.5,46.501,72.5z"></path></g>    <g>	<polygon style="fill:#472B29;" points="42.478,67.184 41,70 43.957,70  "></polygon></g>    <g>	<polygon style="fill:#472B29;" points="46.5,67.184 45,70 48,70  "></polygon></g>    <g>	<g>		<circle style="fill:#F9E65C;" cx="50.5" cy="30.5" r="2.8"></circle>	</g>        <g>		<path style="fill:#472B29;" d="M50.5,28.4c1.158,0,2.1,0.942,2.1,2.1s-0.942,2.1-2.1,2.1s-2.1-0.942-2.1-2.1    S49.342,28.4,50.5,28.4 M50.5,27c-1.933,0-3.5,1.567-3.5,3.5s1.567,3.5,3.5,3.5s3.5-1.567,3.5-3.5S52.433,27,50.5,27L50.5,27z"></path>	</g></g>    <g>	<g>		<circle style="fill:#F9E65C;" cx="64.5" cy="34.5" r="2.8"></circle>	</g>        <g>		<path style="fill:#472B29;" d="M64.5,32.4c1.158,0,2.1,0.942,2.1,2.1s-0.942,2.1-2.1,2.1s-2.1-0.942-2.1-2.1    S63.342,32.4,64.5,32.4 M64.5,31c-1.933,0-3.5,1.567-3.5,3.5s1.567,3.5,3.5,3.5s3.5-1.567,3.5-3.5S66.433,31,64.5,31L64.5,31z"></path>	</g></g>    <g>	<g>		<circle style="fill:#F9E65C;" cx="36.5" cy="34.5" r="2.8"></circle>	</g>        <g>		<path style="fill:#472B29;" d="M36.5,32.4c1.158,0,2.1,0.942,2.1,2.1s-0.942,2.1-2.1,2.1s-2.1-0.942-2.1-2.1    S35.342,32.4,36.5,32.4 M36.5,31c-1.933,0-3.5,1.567-3.5,3.5s1.567,3.5,3.5,3.5s3.5-1.567,3.5-3.5S38.433,31,36.5,31L36.5,31z"></path>	</g></g>    <g>	<polygon style="fill:#472B29;" points="50.531,36.377 46.586,40.759 54.475,40.759  "></polygon></g>    <g>		<rect x="40.177" y="40.853" transform="matrix(0.9048 -0.4259 0.4259 0.9048 -15.0677 21.5615)" style="fill:#472B29;" width="1" height="7.238"></rect></g>    <g>	<polygon style="fill:#472B29;" points="38.682,39.47 36.837,45.07 44.058,41.893  "></polygon></g>    <g>		<rect x="56.761" y="43.972" transform="matrix(0.426 -0.9047 0.9047 0.426 -5.5751 80.1562)" style="fill:#472B29;" width="7.241" height="1"></rect></g>    <g>	<polygon style="fill:#472B29;" points="62.373,39.47 64.218,45.07 56.998,41.893  "></polygon></g>    <g>	<g>		<path style="fill:#FDFCEF;" d="M78.5,72.5c0,0,1.567,0,3.5,0s3.5-1.567,3.5-3.5c0-1.781-1.335-3.234-3.055-3.455    C82.473,65.366,82.5,65.187,82.5,65c0-1.933-1.567-3.5-3.5-3.5c-1.032,0-1.95,0.455-2.59,1.165    c-0.384-1.808-1.987-3.165-3.91-3.165c-2.209,0-4,1.791-4,4c0,0.191,0.03,0.374,0.056,0.558C68.128,63.714,67.592,63.5,67,63.5    c-1.228,0-2.245,0.887-2.455,2.055C64.366,65.527,64.187,65.5,64,65.5c-1.933,0-3.5,1.567-3.5,3.5s1.567,3.5,3.5,3.5s7.5,0,7.5,0    V73h7V72.5z"></path>	</g>        <g>		<path style="fill:#472B29;" d="M80.25,68C80.112,68,80,67.888,80,67.75c0-1.223,0.995-2.218,2.218-2.218    c0.034,0.009,0.737-0.001,1.244,0.136c0.133,0.036,0.212,0.173,0.176,0.306c-0.036,0.134-0.173,0.213-0.306,0.176    c-0.444-0.12-1.1-0.12-1.113-0.118c-0.948,0-1.719,0.771-1.719,1.718C80.5,67.888,80.388,68,80.25,68z"></path>	</g>        <g>		<circle style="fill:#472B29;" cx="73.5" cy="72.5" r="0.5"></circle>	</g>        <g>		<path style="fill:#472B29;" d="M82,73h-3.5c-0.276,0-0.5-0.224-0.5-0.5s0.224-0.5,0.5-0.5H82c1.654,0,3-1.346,3-3    c0-1.496-1.125-2.768-2.618-2.959c-0.134-0.018-0.255-0.088-0.336-0.196s-0.115-0.244-0.094-0.377C81.975,65.314,82,65.16,82,65    c0-1.654-1.346-3-3-3c-0.85,0-1.638,0.355-2.219,1c-0.125,0.139-0.321,0.198-0.5,0.148c-0.182-0.049-0.321-0.195-0.36-0.379    C75.58,61.165,74.141,60,72.5,60c-1.93,0-3.5,1.57-3.5,3.5c0,0.143,0.021,0.28,0.041,0.418c0.029,0.203-0.063,0.438-0.242,0.54    c-0.179,0.102-0.396,0.118-0.556-0.01C67.878,64.155,67.449,64,67,64c-0.966,0-1.792,0.691-1.963,1.644    c-0.048,0.267-0.296,0.446-0.569,0.405C64.314,66.025,64.16,66,64,66c-1.654,0-3,1.346-3,3s1.346,3,3,3h7.5    c0.276,0,0.5,0.224,0.5,0.5S71.776,73,71.5,73H64c-2.206,0-4-1.794-4-4s1.794-4,4-4c0.059,0,0.116,0.002,0.174,0.006    C64.588,63.82,65.711,63,67,63c0.349,0,0.689,0.061,1.011,0.18C68.176,60.847,70.126,59,72.5,59c1.831,0,3.466,1.127,4.153,2.774    C77.333,61.276,78.155,61,79,61c2.206,0,4,1.794,4,4c0,0.048-0.001,0.095-0.004,0.142C84.739,65.59,86,67.169,86,69    C86,71.206,84.206,73,82,73z"></path>	</g>        <g>		<path style="fill:#472B29;" d="M76.5,72c-0.159,0-0.841,0-1,0c-0.276,0-0.5,0.224-0.5,0.5c0,0.276,0.224,0.5,0.5,0.5    c0.159,0,0.841,0,1,0c0.276,0,0.5-0.224,0.5-0.5C77,72.224,76.776,72,76.5,72z"></path>	</g></g></svg>