<svg xmlns="http://www.w3.org/2000/svg" xmlns:xlink="http://www.w3.org/1999/xlink" version="1.1" id="Layer_1" x="0px" y="0px" viewBox="0 0 100 100" style="enable-background:new 0 0 100 100;" xml:space="preserve">
	<g>
		<path style="fill:#C7EDE6;" d="M87.215,56.71C88.35,54.555,89,52.105,89,49.5c0-6.621-4.159-12.257-10.001-14.478   C78.999,35.015,79,35.008,79,35c0-11.598-9.402-21-21-21c-9.784,0-17.981,6.701-20.313,15.757C36.211,29.272,34.638,29,33,29   c-7.692,0-14.023,5.793-14.89,13.252C12.906,43.353,9,47.969,9,53.5C9,59.851,14.149,65,20.5,65c0.177,0,0.352-0.012,0.526-0.022   C21.022,65.153,21,65.324,21,65.5C21,76.822,30.178,86,41.5,86c6.437,0,12.175-2.972,15.934-7.614C59.612,80.611,62.64,82,66,82   c4.65,0,8.674-2.65,10.666-6.518C77.718,75.817,78.837,76,80,76c6.075,0,11-4.925,11-11C91,61.689,89.53,58.727,87.215,56.71z"></path>
	</g>
	<g>
		<g>
			<path style="fill:#FFFFFF;" d="M28.5,75h-10c-0.276,0-0.5-0.224-0.5-0.5s0.224-0.5,0.5-0.5h10c0.276,0,0.5,0.224,0.5,0.5    S28.777,75,28.5,75z"></path>
		</g>
		<g>
			<path style="fill:#FFFFFF;" d="M31.5,75h-1c-0.276,0-0.5-0.224-0.5-0.5s0.224-0.5,0.5-0.5h1c0.276,0,0.5,0.224,0.5,0.5    S31.777,75,31.5,75z"></path>
		</g>
		<g>
			<path style="fill:#FFFFFF;" d="M36.491,77H27.5c-0.276,0-0.5-0.224-0.5-0.5s0.224-0.5,0.5-0.5h8.991c0.276,0,0.5,0.224,0.5,0.5    S36.767,77,36.491,77z"></path>
		</g>
		<g>
			<path style="fill:#FFFFFF;" d="M25.5,77h-1c-0.276,0-0.5-0.224-0.5-0.5s0.224-0.5,0.5-0.5h1c0.276,0,0.5,0.224,0.5,0.5    S25.777,77,25.5,77z"></path>
		</g>
		<g>
			<path style="fill:#FFFFFF;" d="M22.5,77h-2c-0.276,0-0.5-0.224-0.5-0.5s0.224-0.5,0.5-0.5h2c0.276,0,0.5,0.224,0.5,0.5    S22.777,77,22.5,77z"></path>
		</g>
		<g>
			<path style="fill:#FFFFFF;" d="M28.5,79h-2c-0.276,0-0.5-0.224-0.5-0.5s0.224-0.5,0.5-0.5h2c0.276,0,0.5,0.224,0.5,0.5    S28.776,79,28.5,79z"></path>
		</g>
		<g>
			<path style="fill:#FFFFFF;" d="M31.5,70c-0.177,0-0.823,0-1,0c-0.276,0-0.5,0.224-0.5,0.5c0,0.276,0.224,0.5,0.5,0.5    c0.177,0,0.823,0,1,0c0.276,0,0.5-0.224,0.5-0.5C32,70.224,31.776,70,31.5,70z"></path>
		</g>
		<g>
			<path style="fill:#FFFFFF;" d="M31.5,72c-0.177,0-4.823,0-5,0c-0.276,0-0.5,0.224-0.5,0.5c0,0.276,0.224,0.5,0.5,0.5    c0.177,0,4.823,0,5,0c0.276,0,0.5-0.224,0.5-0.5C32,72.224,31.776,72,31.5,72z"></path>
		</g>
		<g>
			<path style="fill:#FFFFFF;" d="M36.5,74c-0.177,0-2.823,0-3,0c-0.276,0-0.5,0.224-0.5,0.5c0,0.276,0.224,0.5,0.5,0.5    c0.177,0,2.823,0,3,0c0.276,0,0.5-0.224,0.5-0.5C37,74.224,36.776,74,36.5,74z"></path>
		</g>
	</g>
	<g>
		<g>
			<path style="fill:#FFFFFF;" d="M69.5,23h-10c-0.276,0-0.5-0.224-0.5-0.5s0.224-0.5,0.5-0.5h10c0.276,0,0.5,0.224,0.5,0.5    S69.776,23,69.5,23z"></path>
		</g>
		<g>
			<path style="fill:#FFFFFF;" d="M73.5,23h-2c-0.276,0-0.5-0.224-0.5-0.5s0.224-0.5,0.5-0.5h2c0.276,0,0.5,0.224,0.5,0.5    S73.776,23,73.5,23z"></path>
		</g>
		<g>
			<path style="fill:#FFFFFF;" d="M78.5,25h-10c-0.276,0-0.5-0.224-0.5-0.5s0.224-0.5,0.5-0.5h10c0.276,0,0.5,0.224,0.5,0.5    S78.777,25,78.5,25z"></path>
		</g>
		<g>
			<path style="fill:#FFFFFF;" d="M66.5,25h-1c-0.276,0-0.5-0.224-0.5-0.5s0.224-0.5,0.5-0.5h1c0.276,0,0.5,0.224,0.5,0.5    S66.776,25,66.5,25z"></path>
		</g>
		<g>
			<path style="fill:#FFFFFF;" d="M63.47,25H61.5c-0.276,0-0.5-0.224-0.5-0.5s0.224-0.5,0.5-0.5h1.97c0.276,0,0.5,0.224,0.5,0.5    S63.746,25,63.47,25z"></path>
		</g>
		<g>
			<path style="fill:#FFFFFF;" d="M72.5,21h-5c-0.276,0-0.5-0.224-0.5-0.5s0.224-0.5,0.5-0.5h5c0.276,0,0.5,0.224,0.5,0.5    S72.777,21,72.5,21z"></path>
		</g>
		<g>
			<path style="fill:#FFFFFF;" d="M69.5,27h-2c-0.276,0-0.5-0.224-0.5-0.5s0.224-0.5,0.5-0.5h2c0.276,0,0.5,0.224,0.5,0.5    S69.776,27,69.5,27z"></path>
		</g>
	</g>
	<g>
		<g>
			<path style="fill:#FDFCEF;" d="M76.5,65.5V66h3v-0.5c0,0,4.242,0,5.5,0c2.485,0,4.5-2.015,4.5-4.5    c0-2.333-1.782-4.229-4.055-4.455C85.467,56.364,85.5,56.187,85.5,56c0-2.485-2.015-4.5-4.5-4.5c-1.438,0-2.703,0.686-3.527,1.736    C77.333,50.6,75.171,48.5,72.5,48.5c-2.761,0-5,2.239-5,5c0,0.446,0.077,0.87,0.187,1.282C67.045,54.005,66.086,53.5,65,53.5    c-1.781,0-3.234,1.335-3.455,3.055C61.364,56.533,61.187,56.5,61,56.5c-2.485,0-4.5,2.015-4.5,4.5s2.015,4.5,4.5,4.5s9.5,0,9.5,0    H76.5z"></path>
		</g>
		<g>
			<path style="fill:#472B29;" d="M72.5,48c-3.033,0-5.5,2.467-5.5,5.5c0,0.016,0,0.031,0,0.047C66.398,53.192,65.71,53,65,53    c-1.831,0-3.411,1.261-3.858,3.005C61.095,56.002,61.048,56,61,56c-2.757,0-5,2.243-5,5s2.243,5,5,5h15.5    c0.276,0,0.5-0.224,0.5-0.5S76.776,65,76.5,65H61c-2.206,0-4-1.794-4-4s1.794-4,4-4c0.117,0,0.23,0.017,0.343,0.032l0.141,0.019    c0.021,0.003,0.041,0.004,0.062,0.004c0.246,0,0.462-0.185,0.495-0.437C62.232,55.125,63.504,54,65,54    c0.885,0,1.723,0.401,2.301,1.1c0.098,0.118,0.241,0.182,0.386,0.182c0.078,0,0.156-0.018,0.228-0.056    c0.209-0.107,0.314-0.346,0.254-0.573C68.054,54.218,68,53.852,68,53.5c0-2.481,2.019-4.5,4.5-4.5    c2.381,0,4.347,1.872,4.474,4.263c0.011,0.208,0.15,0.387,0.349,0.45c0.05,0.016,0.101,0.024,0.152,0.024    c0.15,0,0.296-0.069,0.392-0.192C78.638,52.563,79.779,52,81,52c2.206,0,4,1.794,4,4c0,0.117-0.017,0.23-0.032,0.343l-0.019,0.141    c-0.016,0.134,0.022,0.268,0.106,0.373c0.084,0.105,0.207,0.172,0.34,0.185C87.451,57.247,89,58.949,89,61c0,2.206-1.794,4-4,4    h-5.5c-0.276,0-0.5,0.224-0.5,0.5s0.224,0.5,0.5,0.5H85c2.757,0,5-2.243,5-5c0-2.397-1.689-4.413-4.003-4.877    C85.999,56.082,86,56.041,86,56c0-2.757-2.243-5-5-5c-1.176,0-2.293,0.416-3.183,1.164C77.219,49.76,75.055,48,72.5,48L72.5,48z"></path>
		</g>
		<g>
			<path style="fill:#472B29;" d="M71,55c-1.403,0-2.609,0.999-2.913,2.341C67.72,57.119,67.301,57,66.875,57    c-1.202,0-2.198,0.897-2.353,2.068C64.319,59.022,64.126,59,63.937,59c-1.529,0-2.811,1.2-2.918,2.732    C61.01,61.87,61.114,61.99,61.251,62c0.006,0,0.012,0,0.018,0c0.13,0,0.24-0.101,0.249-0.232c0.089-1.271,1.151-2.268,2.419-2.268    c0.229,0,0.47,0.042,0.738,0.127c0.022,0.007,0.045,0.01,0.067,0.01c0.055,0,0.11-0.02,0.156-0.054    C64.962,59.537,65,59.455,65,59.375c0-1.034,0.841-1.875,1.875-1.875c0.447,0,0.885,0.168,1.231,0.473    c0.047,0.041,0.106,0.063,0.165,0.063c0.032,0,0.063-0.006,0.093-0.019c0.088-0.035,0.148-0.117,0.155-0.212    C68.623,56.512,69.712,55.5,71,55.5c0.208,0,0.425,0.034,0.682,0.107c0.023,0.007,0.047,0.01,0.07,0.01    c0.109,0,0.207-0.073,0.239-0.182c0.038-0.133-0.039-0.271-0.172-0.309C71.517,55.04,71.256,55,71,55L71,55z"></path>
		</g>
		<g>
			<path style="fill:#472B29;" d="M84.883,56.5c-1.326,0-2.508,0.897-2.874,2.182c-0.038,0.133,0.039,0.271,0.172,0.309    C82.205,58.997,82.228,59,82.25,59c0.109,0,0.209-0.072,0.24-0.182C82.795,57.748,83.779,57,84.883,57    c0.117,0,0.23,0.014,0.342,0.029c0.012,0.002,0.023,0.003,0.035,0.003c0.121,0,0.229-0.092,0.246-0.217    c0.019-0.137-0.077-0.263-0.214-0.281C85.158,56.516,85.022,56.5,84.883,56.5L84.883,56.5z"></path>
		</g>
	</g>
	<g>
		<g>
			<g>
				<path style="fill:#88BBED;" d="M50.321,73.217c-3.133,0-6.185-0.653-9.07-1.94c-11.227-5.008-16.286-18.216-11.278-29.442     c3.582-8.029,11.579-13.218,20.374-13.218c3.133,0,6.184,0.653,9.07,1.94c5.438,2.426,9.606,6.824,11.736,12.385     c2.131,5.561,1.968,11.619-0.459,17.058C67.111,68.028,59.115,73.217,50.321,73.217z"></path>
			</g>
			<g>
				<g>
					<path style="fill:#472B29;" d="M50.348,27.917v1.4c3.033,0,5.988,0.632,8.783,1.879c5.268,2.35,9.305,6.61,11.368,11.997      s1.905,11.254-0.444,16.522c-3.469,7.777-11.215,12.803-19.734,12.803c-3.034,0-5.989-0.632-8.784-1.879      c-5.268-2.35-9.305-6.61-11.368-11.997s-1.905-11.254,0.444-16.522c3.469-7.777,11.215-12.802,19.734-12.803L50.348,27.917       M50.346,27.917c-8.798,0-17.197,5.078-21.013,13.632c-5.173,11.598,0.034,25.194,11.632,30.367c3.044,1.358,6.224,2,9.355,2      c8.798,0,17.197-5.078,21.013-13.632c5.173-11.598-0.034-25.194-11.632-30.367C56.657,28.559,53.477,27.916,50.346,27.917      L50.346,27.917z"></path>
				</g>
			</g>
		</g>
		<g>
			<g>
				<path style="fill:#CAD34F;" d="M29.628,48.935c-0.035-0.173,0.049-0.587,0.116-0.92c0.066-0.327,0.129-0.636,0.129-0.872     c0-0.227,0.336-0.745,0.559-1.089c0.17-0.26,0.316-0.486,0.383-0.657c0.102-0.259,0.496-0.864,0.844-1.396     c0.152-0.233,0.298-0.457,0.416-0.647c0.101-0.162,0.312-0.501,0.096-0.721c-0.069-0.072-0.152-0.094-0.246-0.099     c0.028-0.027,0.051-0.048,0.072-0.062c0.241-0.161,1.609-1.126,1.645-1.155c0.025-0.026,0.612-0.636-0.034-1.841     c-0.232-0.427-0.169-0.543-0.088-0.69c0.053-0.097,0.12-0.218,0.12-0.385c0-0.112-0.072-0.214-0.178-0.251     c-0.014-0.005-0.09-0.031-0.196-0.046c-0.095-0.011-0.193,0.028-0.251,0.107c-2.63,3.568-4.076,7.79-4.183,12.21     c-0.003,0.128,0.086,0.241,0.211,0.267c0.018,0.004,0.037,0.006,0.056,0.006c0.107,0,0.204-0.064,0.247-0.164     C29.489,50.188,29.699,49.302,29.628,48.935z"></path>
			</g>
			<g>
				<path style="fill:#CAD34F;" d="M37.432,61.55c-0.152-0.03-0.453-0.25-0.673-0.411c-0.345-0.252-0.55-0.395-0.743-0.395     c-0.167,0-0.517-0.131-0.732-0.274c-0.089-0.061-0.206-0.12-0.331-0.183c-0.173-0.088-0.409-0.205-0.477-0.307     c-0.105-0.156-0.365-0.565-0.536-0.995l-0.063-0.168c-0.106-0.294-0.169-0.427-0.708-1.031l-0.104-0.116     c-0.436-0.492-0.462-0.522-0.746-0.656l-0.192-0.093c-0.212-0.106-0.357-0.211-0.498-0.314c-0.16-0.116-0.326-0.238-0.564-0.333     c-0.369-0.151-0.522-0.267-0.806-0.514c-0.216-0.19-0.402-0.301-0.571-0.344c-0.091-0.02-0.185,0.003-0.252,0.067     c-0.066,0.065-0.094,0.159-0.074,0.25c0.957,4.193,3.14,7.977,6.316,10.944c0.032,0.03,0.072,0.052,0.114,0.064     c0.085,0.022,0.16,0.03,0.228,0.03c0.148,0,0.261-0.041,0.35-0.074c0.077-0.028,0.132-0.048,0.209-0.048     c0.394,0,0.878-0.386,0.972-0.464c0.084-0.07,0.117-0.186,0.082-0.289l-0.296-0.885l0.298-1.112l0.396-1.112     c0.011-0.029,0.016-0.06,0.016-0.09C38.048,62.592,38.031,61.672,37.432,61.55z"></path>
			</g>
			<g>
				<path style="fill:#CAD34F;" d="M42.192,32.015c0.075,0,0.146-0.031,0.196-0.086c0,0,0.31-0.336,0.566-0.664     c0.074-0.095,0.076-0.227,0.004-0.323c-0.07-0.097-0.198-0.131-0.311-0.091c-2.548,0.981-4.863,2.422-6.879,4.282     c-0.029,0.027-0.052,0.061-0.066,0.097c-0.042,0.104-0.078,0.202-0.106,0.3c-0.038,0.156,0,0.299,0.107,0.394     c0.172,0.155,0.461,0.115,0.704,0.038l0.623,0.278c0.034,0.016,0.072,0.022,0.109,0.022c0.031,0,0.062-0.005,0.091-0.016     l0.883-0.32c0.064-0.023,0.116-0.07,0.147-0.131c0.002-0.004,0.223-0.431,0.719-0.784c0.42-0.301,0.525-0.449,0.649-0.658     c0.034-0.058,0.072-0.122,0.132-0.202c0.106-0.142,0.106-0.142,0.194-0.231c0.101-0.101,0.303-0.303,0.828-0.868     C41.7,32.065,42.197,32.015,42.192,32.015L42.192,32.015z"></path>
			</g>
			<g>
				<path style="fill:#CAD34F;" d="M65.16,59.623c-0.105-0.005-0.216,0.042-0.268,0.139l-0.599,1.121     c-0.359,0.158-1.015,0.493-1.111,0.865c-0.069,0.279-0.139,0.67-0.159,0.788c-0.08,0.177-0.401,0.903-0.483,1.216     c-0.082,0.326,0.012,0.879,0.256,1.105c0.083,0.077,0.181,0.117,0.284,0.117c0.043,0,0.084-0.007,0.126-0.021     c0.199-0.066,0.409-0.268,0.632-0.479c0.115-0.111,0.225-0.217,0.312-0.275c0.31-0.207,0.737-0.909,0.831-1.28     c0.049-0.195,0.127-0.481,0.199-0.746l0.122-0.452c0-0.001,0-0.002,0.001-0.003c0.083-0.333,0.169-0.993,0.174-1.267     c0-0.269-0.084-0.612-0.089-0.627C65.36,59.715,65.269,59.636,65.16,59.623z"></path>
			</g>
			<g>
				<path style="fill:#CAD34F;" d="M61.758,32.673c-0.082-0.052-0.186-0.053-0.271-0.007l-0.169,0.098     c-0.152,0.09-0.559,0.325-0.652,0.31c-0.16-0.159-0.445-0.382-0.637-0.528c0.01-0.048,0.011-0.092,0.007-0.125     c-0.034-0.431-0.776-0.831-1.215-1.031c-0.029-0.014-0.061-0.021-0.093-0.022l-1.699-0.113h-1.2     c-0.112,0-0.273,0.015-0.455,0.031c-0.211,0.021-0.454,0.044-0.67,0.044c-0.285,0-0.68,0.189-1.209,0.456     c-0.208,0.106-0.444,0.225-0.539,0.249c-0.148,0.036-0.34,0.121-0.563,0.219c-0.239,0.105-0.599,0.263-0.735,0.263     c-0.415,0-0.879,0.54-1.037,0.743c-0.465,0.852-0.278,1.076-0.217,1.15c0.049,0.059,0.192,0.183,0.459,0.097     c0.402-0.137,0.807-0.115,0.861-0.095c0.042,0.121,0.101,0.281,0.162,0.441c0.042,0.111,0.084,0.223,0.119,0.319     c-0.036-0.002-0.078-0.001-0.117,0.012c-0.502,0.168-0.916,0.417-0.985,0.468c-0.464,0.467-0.935,0.88-1.069,0.996     c-0.142,0.051-0.539,0.205-0.827,0.423c-0.108,0.08-0.305,0.144-0.498,0.204c-0.298,0.096-0.606,0.194-0.764,0.415     c-0.316,0.443-0.198,0.868,0.017,1.14l-0.325,0.423l-0.267,0.187l-1.108,0.228l-0.706,0.119     c-0.076,0.013-0.142,0.061-0.181,0.126c-0.041,0.066-0.049,0.148-0.027,0.221c0.029,0.096-0.012,0.5-0.094,0.918v1.358     c0,0.12,0.08,0.225,0.196,0.257c0.281,0.077,1.217,0.331,1.474,0.331l0.115,0.003c0.31,0.013,0.88,0.035,1.238-0.322     c0.336-0.34,0.868-1.074,1.033-1.322c0.13-0.195,0.309-0.395,0.729-0.536c0.329-0.11,0.503-0.256,0.629-0.364     c0.076-0.065,0.119-0.099,0.169-0.115c0.145-0.049,0.69-0.151,1.061-0.215l0.549,0.368c-0.025,0.067-0.034,0.149-0.001,0.242     c0.069,0.196,0.267,0.34,1.025,0.469v0.406c0,0.075,0.031,0.146,0.086,0.196c0.056,0.051,0.131,0.08,0.203,0.069l0.982-0.08     c0.1-0.009,0.188-0.073,0.225-0.167c0.037-0.094,0.019-0.201-0.048-0.277l-0.569-0.642c-0.035-0.04-0.082-0.067-0.133-0.081     l-0.82-0.823l-0.011-0.117c0.307,0.172,0.693,0.385,0.878,0.476c0.243,0.122,0.733,0.456,0.906,0.575l0.445,1.053     c0.01,0.022,0.023,0.045,0.04,0.065l0.641,0.783c0.093,0.114,0.263,0.13,0.375,0.038c0.114-0.093,0.132-0.259,0.041-0.375     c-0.255-0.318-0.317-0.528-0.316-0.558c0-0.001,0.042-0.031,0.164-0.032c0.192,0.02,0.84,0.079,1.112-0.013     c0.199-0.065,0.369-0.126,0.567-0.215c-0.12,0.142-0.195,0.333-0.147,0.573c0.075,0.379,0.335,0.85,0.774,1.398     c0.067,0.086,0.132,0.176,0.193,0.263c0.25,0.349,0.563,0.784,0.962,0.516c0.108-0.07,0.326-0.205,0.534-0.332     c-0.012,0.158-0.011,0.328,0.021,0.483c0.043,0.205,0.061,0.462,0.069,0.649c-0.421,0.028-0.542,0.13-0.588,0.28     c-0.016,0.051-0.051,0.227,0.153,0.365c0.076,0.05,0.19,0.202,0.298,0.359c-0.143-0.16-0.357-0.281-0.596-0.399     c-0.159-0.078-0.325-0.159-0.439-0.246c-0.332-0.248-1.85-0.571-2.384-0.68c-0.348-0.212-0.8-0.408-1.065-0.196     c-0.666,0.53-2.359,0.21-2.782,0.041c-0.327-0.129-0.476-0.295-0.476-0.393c0-0.261-0.286-1.201-0.374-1.483     c-0.041-0.128-0.165-0.209-0.302-0.184c-0.294,0.052-0.82,0.136-0.977,0.136c-0.116,0-0.491-0.121-0.773-0.233     c-0.038-0.016-0.08-0.022-0.124-0.018c-0.088,0.009-0.859,0.085-1.215,0.265c-0.291,0.147-0.912,0.38-1.163,0.464     c-0.156,0.052-0.553,0.111-0.759,0.14c-0.818-0.307-1.463,0.447-1.72,0.957c-0.047,0.097-0.121,0.181-0.199,0.271     c-0.138,0.158-0.31,0.357-0.31,0.648c0,0.133-0.364,0.527-0.685,0.74c-0.045,0.03-0.113,0.072-0.196,0.123     c-0.515,0.316-1.036,0.654-1.244,1.002c-0.219,0.364-0.501,0.897-0.596,1.37c-0.084,0.426-0.084,0.769-0.084,1.333     c0,0.194-0.01,0.359-0.019,0.511c-0.018,0.287-0.034,0.557,0.022,0.898c0.095,0.588,1.015,1.906,1.256,2.208     c0.349,0.436,0.759,0.922,1.197,1.182c0.329,0.2,0.791,0.583,0.901,0.676c0.172,0.228,0.62,0.544,1.249,0.307     c0.249-0.093,0.508-0.149,0.758-0.204c0.376-0.081,0.763-0.167,1.127-0.374c0.55-0.31,0.905-0.421,1.046-0.427     c0.012,0.326,0.142,0.601,0.364,0.761c0.216,0.156,0.494,0.19,0.788,0.091c0.077-0.026,0.162-0.058,0.25-0.091     c0.154-0.058,0.449-0.169,0.598-0.184c-0.051,0.395,0.032,0.836,0.098,1.19c0.033,0.176,0.064,0.343,0.064,0.435     c0,0.06-0.003,0.119-0.005,0.178c-0.014,0.273-0.031,0.615,0.244,0.891c0.08,0.08,0.203,0.179,0.334,0.284     c0.154,0.122,0.44,0.349,0.473,0.411c0,0.201,0.067,1.08,0.268,1.483c0.189,0.376,0.253,0.714,0.168,0.884     c-0.167,0.331-0.471,1.197-0.493,1.27c-0.036,0.185-0.147,0.811-0.051,1.093c0.108,0.326,0.357,0.685,0.742,1.069     c0.194,0.194,0.274,0.414,0.359,0.645c0.065,0.18,0.133,0.366,0.255,0.527c0.184,0.247,0.538,0.976,0.667,1.253l0.41,0.741v0.651     c0,0.079,0.035,0.154,0.095,0.204c0.048,0.041,0.109,0.063,0.172,0.063c0.015,0,0.031-0.001,0.046-0.004     c0.057-0.01,1.376-0.241,1.702-0.323c0.377-0.097,1.268-0.689,1.612-1.031c0.173-0.174,0.253-0.329,0.323-0.464     c0.075-0.145,0.135-0.258,0.309-0.399c0.401-0.319,1.128-0.88,1.128-0.88c0.07-0.054,0.109-0.141,0.104-0.228l-0.07-1.101     l0.882-1.178l0.748-0.753c0.216-0.295,0.707-1.024,0.604-1.421c-0.052-0.214-0.161-1.178-0.226-1.817     c0.107-0.232,0.338-0.706,0.505-0.928c0.101-0.141,0.164-0.285,0.225-0.424c0.097-0.224,0.19-0.436,0.451-0.652     c0.437-0.363,0.748-0.79,0.976-1.101l0.194-0.263c0.257-0.343,0.66-0.879,0.804-1.094v-0.001c0.14-0.208,0.259-0.635,0.361-1.036     c0.022-0.07,0.016-0.151-0.022-0.218c-0.057-0.096-0.167-0.147-0.274-0.129l-1.269,0.211c-0.311-0.488-0.835-1.204-1.265-1.793     c-0.325-0.443-0.631-0.863-0.725-1.019c-0.207-0.346-0.435-1.074-0.53-1.452c-0.057-0.223-0.235-0.648-0.393-1.024     c-0.08-0.192-0.151-0.358-0.178-0.438c-0.003-0.011-0.013-0.026-0.017-0.037c0.864,1.244,1.977,2.905,2.09,3.13     c0.048,0.099,0.069,0.24,0.093,0.388c0.038,0.249,0.081,0.532,0.279,0.727c0.599,0.599,1.658,0.112,2.016-0.125     c0.073-0.048,0.199-0.117,0.343-0.201c0.448-0.253,0.805-0.461,0.986-0.642c0.159-0.156,0.159-0.156,0.332-0.268l0.267-0.174     c0.439-0.294,0.728-0.509,0.758-0.809c0.01-0.102-0.009-0.255-0.157-0.404c-0.155-0.156-0.496-0.735-0.675-1.061     c-0.057-0.105-0.175-0.157-0.293-0.133c-0.555,0.124-1.068-0.156-1.12-0.22c0-0.161-0.138-0.452-0.317-0.76     c0.165,0.106,0.329,0.242,0.488,0.375c0.356,0.295,0.691,0.574,1.088,0.574c0.373,0,0.565,0.111,1.027,0.377l0.122,0.07     c0.283,0.159,0.479,0.346,0.653,0.511c0.156,0.147,0.303,0.286,0.481,0.377c0.192,0.096,0.536,0.494,0.676,0.668     c0.132,0.306,0.487,1.156,0.547,1.403c0,0.001,0,0.002,0,0.003c0.042,0.16,0.153,0.42,0.281,0.719     c0.057,0.132,0.114,0.268,0.164,0.391c0.042,0.102,0.14,0.167,0.247,0.167c0.014,0,0.029-0.001,0.044-0.003     c0.124-0.021,0.216-0.124,0.223-0.248l0.019-0.305c0.025-0.305,0.045-0.614,0.045-0.924     C71.895,43.484,68.106,36.659,61.758,32.673z M58.529,40.63c-0.033-0.215-0.046-0.353,0.036-0.458     c0.27-0.333,0.618-0.476,0.856-0.556c0.216-0.07,0.786-0.348,1.006-0.457l0.256,0.047c-0.428,0.422-0.354,0.57-0.307,0.666     c0.027,0.053,0.133,0.22,0.406,0.151c0.167-0.031,0.767,0.235,1.138,0.516c0.07,0.052,0.068,0.185,0.047,0.301     c-0.295-0.029-0.827-0.083-1.211-0.14c-0.599-0.081-1.493,0.077-1.53,0.083c-0.029,0.005-0.057,0.016-0.082,0.029l-0.659,0.37     C58.587,41.011,58.554,40.792,58.529,40.63z M53.485,35.781c0.11,0.013,0.221-0.058,0.266-0.164     c0.001-0.003,0.156-0.376,0.372-0.663c0.081-0.11,0.161-0.227,0.234-0.335c0.11,0.231,0.222,0.474,0.257,0.578     c0.022,0.085-0.04,0.406-0.131,0.706c-0.361,0.224-0.786,0.455-0.861,0.472c-0.121-0.038-0.526-0.346-0.958-0.704     C52.862,35.717,53.128,35.758,53.485,35.781z"></path>
			</g>
		</g>
		<g>
			<path style="fill:#CAD34F;" d="M49.091,35.752l-0.867-1.038l-0.472-0.916c-0.039-0.075-0.111-0.128-0.194-0.142    c-0.084-0.019-0.169,0.01-0.231,0.069l-0.441,0.415c-0.054,0.051-0.085,0.121-0.085,0.196v1.132l-0.789-0.223    c-0.131-0.04-0.266,0.027-0.32,0.151l-0.33,0.75c-0.037,0.083-0.028,0.18,0.022,0.255l0.329,0.501    c0.041,0.064,0.107,0.107,0.181,0.119c0.015,0.002,0.029,0.003,0.044,0.003c0.059,0,0.117-0.02,0.166-0.057l0.696-0.543v0.331    c0,0.082,0.038,0.159,0.101,0.21c0.065,0.052,0.147,0.072,0.228,0.052l1.449-0.334c0.064-0.014,0.119-0.051,0.157-0.103    l0.364-0.499C49.174,35.982,49.17,35.847,49.091,35.752z"></path>
		</g>
		<g>
			<path style="fill:#472B29;" d="M64.667,51.5h-36.75c-0.138,0-0.25-0.112-0.25-0.25S27.778,51,27.917,51h36.75    c0.138,0,0.25,0.112,0.25,0.25S64.805,51.5,64.667,51.5z"></path>
		</g>
		<g>
			<path style="fill:#472B29;" d="M50.5,42.79c-5.745,0-11.49-2.344-16.177-7.03c-0.098-0.098-0.098-0.256,0-0.354    s0.256-0.098,0.354,0c9.169,9.168,22.479,9.169,31.646,0c0.098-0.098,0.256-0.098,0.354,0s0.098,0.256,0,0.354    C61.99,40.446,56.245,42.79,50.5,42.79z"></path>
		</g>
		<g>
			<path style="fill:#472B29;" d="M49.969,73.25c-0.058,0-0.117-0.021-0.164-0.062C42.677,67.008,38.75,59.142,38.75,51.039    c0-8.065,3.926-15.911,11.055-22.092c0.103-0.091,0.262-0.079,0.353,0.024c0.09,0.104,0.079,0.263-0.025,0.353    C43.115,35.409,39.25,43.12,39.25,51.039c0,7.956,3.865,15.688,10.882,21.772c0.104,0.09,0.116,0.248,0.025,0.353    C50.109,73.221,50.039,73.25,49.969,73.25z"></path>
		</g>
		<g>
			<path style="fill:#472B29;" d="M51.001,73.25c-0.07,0-0.14-0.029-0.189-0.086c-0.09-0.104-0.079-0.263,0.025-0.353    c7.017-6.085,10.881-13.817,10.881-21.773c0-7.918-3.864-15.629-10.881-21.714c-0.104-0.09-0.116-0.248-0.025-0.353    s0.248-0.115,0.353-0.024c7.128,6.181,11.054,14.025,11.054,22.091c0,8.104-3.926,15.97-11.054,22.15    C51.117,73.229,51.06,73.25,51.001,73.25z"></path>
		</g>
		<g>
			<path style="fill:#472B29;" d="M66.5,66.521c-0.064,0-0.128-0.024-0.177-0.073c-9.169-9.169-22.478-9.168-31.646,0    c-0.098,0.098-0.256,0.098-0.354,0s-0.098-0.256,0-0.354c9.373-9.373,22.98-9.373,32.354,0c0.098,0.098,0.098,0.256,0,0.354    C66.628,66.497,66.564,66.521,66.5,66.521z"></path>
		</g>
		<g>
			<path style="fill:#472B29;" d="M72.667,51.5h-5.084c-0.138,0-0.25-0.112-0.25-0.25S67.445,51,67.583,51h5.084    c0.138,0,0.25,0.112,0.25,0.25S72.805,51.5,72.667,51.5z"></path>
		</g>
		<g>
			<path style="fill:#472B29;" d="M50.5,73.75c-0.138,0-0.25-0.112-0.25-0.25v-27c0-0.138,0.112-0.25,0.25-0.25s0.25,0.112,0.25,0.25    v27C50.75,73.638,50.638,73.75,50.5,73.75z"></path>
		</g>
		<g>
			<path style="fill:#472B29;" d="M50.5,33.75c-0.138,0-0.25-0.112-0.25-0.25v-5c0-0.138,0.112-0.25,0.25-0.25s0.25,0.112,0.25,0.25    v5C50.75,33.638,50.638,33.75,50.5,33.75z"></path>
		</g>
		<g>
			<path style="fill:#472B29;" d="M50.5,43.75c-0.138,0-0.25-0.112-0.25-0.25v-7c0-0.138,0.112-0.25,0.25-0.25s0.25,0.112,0.25,0.25    v7C50.75,43.638,50.638,43.75,50.5,43.75z"></path>
		</g>
	</g>
	<g>
		<g>
			<path style="fill:#FDFCEF;" d="M37.5,45.5c0,0,1.567,0,3.5,0s3.5-1.567,3.5-3.5c0-1.781-1.335-3.234-3.055-3.455    C41.473,38.366,41.5,38.187,41.5,38c0-1.933-1.567-3.5-3.5-3.5c-1.032,0-1.95,0.455-2.59,1.165    c-0.384-1.808-1.987-3.165-3.91-3.165c-2.209,0-4,1.791-4,4c0,0.191,0.03,0.374,0.056,0.558C27.128,36.714,26.592,36.5,26,36.5    c-1.228,0-2.245,0.887-2.455,2.055C23.366,38.527,23.187,38.5,23,38.5c-1.933,0-3.5,1.567-3.5,3.5s1.567,3.5,3.5,3.5s7.5,0,7.5,0    V46h7V45.5z"></path>
		</g>
		<g>
			<path style="fill:#472B29;" d="M39.25,41C39.112,41,39,40.888,39,40.75c0-1.223,0.995-2.218,2.218-2.218    c0.034,0.009,0.737-0.001,1.244,0.136c0.133,0.036,0.212,0.173,0.176,0.306c-0.036,0.134-0.173,0.213-0.306,0.176    c-0.444-0.12-1.1-0.12-1.113-0.118c-0.948,0-1.719,0.771-1.719,1.718C39.5,40.888,39.388,41,39.25,41z"></path>
		</g>
		<g>
			<circle style="fill:#472B29;" cx="32.5" cy="45.5" r="0.5"></circle>
		</g>
		<g>
			<path style="fill:#472B29;" d="M41,46h-3.5c-0.276,0-0.5-0.224-0.5-0.5s0.224-0.5,0.5-0.5H41c1.654,0,3-1.346,3-3    c0-1.496-1.125-2.768-2.618-2.959c-0.134-0.018-0.255-0.088-0.336-0.196s-0.115-0.244-0.094-0.377C40.975,38.314,41,38.16,41,38    c0-1.654-1.346-3-3-3c-0.85,0-1.638,0.355-2.219,1c-0.125,0.139-0.321,0.198-0.5,0.148c-0.182-0.049-0.321-0.195-0.36-0.379    C34.58,34.165,33.141,33,31.5,33c-1.93,0-3.5,1.57-3.5,3.5c0,0.143,0.021,0.28,0.041,0.418c0.029,0.203-0.063,0.438-0.242,0.54    c-0.179,0.102-0.396,0.118-0.556-0.01C26.878,37.155,26.449,37,26,37c-0.966,0-1.792,0.691-1.963,1.644    c-0.048,0.267-0.296,0.446-0.569,0.405C23.314,39.025,23.16,39,23,39c-1.654,0-3,1.346-3,3s1.346,3,3,3h7.5    c0.276,0,0.5,0.224,0.5,0.5S30.776,46,30.5,46H23c-2.206,0-4-1.794-4-4s1.794-4,4-4c0.059,0,0.116,0.002,0.174,0.006    C23.588,36.82,24.711,36,26,36c0.349,0,0.689,0.061,1.011,0.18C27.176,33.847,29.126,32,31.5,32c1.831,0,3.466,1.127,4.153,2.774    C36.333,34.276,37.155,34,38,34c2.206,0,4,1.794,4,4c0,0.048-0.001,0.095-0.004,0.142C43.739,38.59,45,40.169,45,42    C45,44.206,43.206,46,41,46z"></path>
		</g>
		<g>
			<path style="fill:#472B29;" d="M35.5,45c-0.159,0-0.841,0-1,0c-0.276,0-0.5,0.224-0.5,0.5c0,0.276,0.224,0.5,0.5,0.5    c0.159,0,0.841,0,1,0c0.276,0,0.5-0.224,0.5-0.5C36,45.224,35.776,45,35.5,45z"></path>
		</g>
	</g>
</svg>