<svg version="1.1" xmlns="http://www.w3.org/2000/svg" xmlns:xlink="http://www.w3.org/1999/xlink" x="0px" y="0px"
     viewBox="0 0 100 100" style="enable-background:new 0 0 100 100;" xml:space="preserve">

<g id="usb_cable">
</g>
    <g id="usb_memory">
</g>
    <g id="search_mail">
</g>
    <g id="movie_camera">
</g>
    <g id="movie_ticket">
</g>
    <g id="movie_clip">
</g>
    <g id="data_base_special">
</g>
    <g id="data_base_lock">
</g>
    <g id="data_base_delete">
</g>
    <g id="data_base_good">
</g>
    <g id="data_base_full">
</g>
    <g id="data_base_search">
</g>
    <g id="battery_empty">
</g>
    <g id="battery_low">
</g>
    <g id="battery_medium">
</g>
    <g id="batery_full">
</g>
    <g id="movie">
</g>
    <g id="web_equlizer">
</g>
    <g id="web_cursor">
</g>
    <g id="web_data_center">
</g>
    <g id="web_help">
</g>
    <g id="web_shop">
</g>
    <g id="web_chats">
</g>
    <g id="web_domains">
</g>
    <g id="web_pictures">
</g>
    <g id="website_4_">
</g>
    <g id="web_settings">
</g>
    <g id="web_lock">
</g>
    <g id="web_imac">
</g>
    <g id="web_cloud">
	<g id="Warstwa_128">
	</g>
</g>
    <g id="web_security">
	<g id="_x2E__1_">
	</g>
</g>
    <g id="web_folder">
</g>
    <g id="web_laptop">
</g>
    <g id="web_globe">
	<g id="globe_network">
	</g>
</g>
    <g id="server">
	<g id="pc">
	</g>
</g>
    <g id="polaroid_1_">
	<g id="polaroid">
	</g>
        <g id="Warstwa_111">
	</g>
</g>
    <g id="speaker">
	<g id="attention">
	</g>
</g>
    <g id="tablet_slide">
	<g id="background_round_19_">
	</g>
</g>
    <g id="tablet_zoom">
	<g id="background_round_18_">
	</g>
</g>
    <g id="tablet_tap">
	<g id="background_round_17_">
	</g>
</g>
    <g id="button_pen">
</g>
    <g id="button_folder">
</g>
    <g id="button_lock">
</g>
    <g id="button_brush">
</g>
    <g id="button_picture">
</g>
    <g id="button_mail">
</g>
    <g id="button_love_letter">
</g>
    <g id="button_search">
	<g id="_x2E_">
	</g>
</g>
    <g id="button_screwdriver">
</g>
    <g id="button_gear">
</g>
    <g id="button_idea">
</g>
    <g id="button_coins">
</g>
    <g id="button_break_link">
</g>
    <g id="button_link">
</g>
    <g id="button_note">
</g>
    <g id="button_cmd">
</g>
    <g id="button_kiss">
	<g id="Warstwa_1">
	</g>
</g>
    <g id="button_ecology">
	<g id="exel_1_">
	</g>
</g>
    <g id="button_eye">
</g>
    <g id="button_stop">
</g>
    <g id="button_list">
</g>
    <g id="button_grid">
</g>
    <g id="button_love">
</g>
    <g id="button_exit">
</g>
    <g id="button_power">
</g>
    <g id="button_delete">
</g>
    <g id="button_promotion">
</g>
    <g id="button_information">
</g>
    <g id="button_question">
</g>
    <g id="button_important">
</g>
    <g id="password_tag">
	<g id="website_3_">
	</g>
        <g id="Warstwa_106">
	</g>
</g>
    <g id="password_help">
	<g id="website_2_">
		<g id="Layer_86">
		</g>
	</g>
</g>
    <g id="password_crown">
	<g id="crown">
	</g>
</g>
    <g id="password_medal">
	<g id="website_1_">
	</g>
</g>
    <g id="password_window">
	<g id="website">
	</g>
        <g>
		<path d="M88.683,56.007c0.3-0.616,0.566-1.264,0.796-1.943c2.633-7.77-1.349-17.078-9.733-19.325
			c-0.906-11.384-8.906-19.193-17.941-20.526C51.464,12.689,41.99,19.259,38.839,29.7c-3.799-1.346-7.501-1.182-10.99,0.857
			c-1.583,0.732-3.031,1.812-4.33,3.233c-1.907,2.086-3.147,4.719-3.652,7.495c-0.748,0.118-1.483,0.236-2.176,0.484
			c-4.04,1.449-6.589,4.431-7.288,8.923c-0.435,2.797,0.443,5.587,0.933,6.714c1.935,4.455,6.422,6.98,10.981,6.312
			c0.227-0.033,0.557,0.069,0.752,0.233c0.241,7.12,3.698,13.417,8.884,17.014c8.321,5.772,19.027,3.994,25.781-3.921
			c2.894,2.96,6.338,4.398,10.384,3.876c4.023-0.519,7.147-2.739,9.426-6.349c1.053,0.283,2.051,0.691,3.083,0.804
			c4.042,0.442,7.324-1.165,9.732-4.8c0.922-1.391,1.794-3.194,1.794-6.354C92.153,60.964,90.859,57.997,88.683,56.007z"
              style="fill:#C7EDE6;"></path>
            <g>
			<g>
				<path d="M34.981,73.9c0,0,11.691,0,11.762,0c2.7,0,4.888-2.189,4.888-4.889c0-2.355-1.666-4.321-3.884-4.784
					c0.026-0.206,0.043-0.415,0.043-0.628c0-2.796-2.267-5.063-5.063-5.063c-1.651,0-3.113,0.794-4.037,2.017
					c-0.236-3.113-3.017-5.514-6.27-5.116c-2.379,0.291-4.346,2.13-4.784,4.486c-0.14,0.756-0.126,1.489,0.014,2.177
					c-0.638-0.687-1.546-1.119-2.557-1.119c-1.85,0-3.361,1.441-3.48,3.261c-0.84-0.186-1.754-0.174-2.717,0.188
					c-1.84,0.691-3.15,2.423-3.227,4.387c-0.109,2.789,2.12,5.085,4.885,5.085c0.21,0,0.948,0,1.118,0h10.151"
                      style="fill:#FDFCEF;"></path>
                <path d="M46.743,74.4H34.981c-0.276,0-0.5-0.224-0.5-0.5s0.224-0.5,0.5-0.5h11.762c2.42,0,4.389-1.969,4.389-4.389
					c0-2.066-1.466-3.873-3.486-4.295c-0.254-0.053-0.426-0.292-0.394-0.55c0.022-0.186,0.039-0.375,0.039-0.567
					c0-2.516-2.047-4.563-4.562-4.563c-1.439,0-2.766,0.663-3.638,1.818c-0.126,0.166-0.343,0.237-0.54,0.179
					c-0.2-0.059-0.342-0.235-0.358-0.442c-0.104-1.377-0.778-2.671-1.85-3.549c-1.082-0.888-2.45-1.281-3.86-1.109
					c-2.166,0.265-3.956,1.943-4.354,4.081c-0.124,0.667-0.12,1.335,0.013,1.986c0.044,0.22-0.062,0.442-0.262,0.544
					c-0.197,0.102-0.442,0.06-0.595-0.104c-0.575-0.619-1.353-0.959-2.19-0.959c-1.568,0-2.878,1.227-2.98,2.794
					c-0.01,0.146-0.082,0.28-0.199,0.367c-0.116,0.087-0.266,0.119-0.408,0.088c-0.838-0.187-1.637-0.132-2.433,0.167
					c-1.669,0.626-2.836,2.209-2.902,3.938c-0.048,1.207,0.386,2.35,1.221,3.218c0.835,0.869,1.959,1.347,3.163,1.347h11.27
					c0.276,0,0.5,0.224,0.5,0.5s-0.224,0.5-0.5,0.5h-11.27c-1.479,0-2.858-0.587-3.884-1.654c-1.025-1.066-1.558-2.469-1.5-3.95
					c0.083-2.126,1.51-4.069,3.551-4.835c0.801-0.3,1.628-0.399,2.468-0.299c0.377-1.822,1.997-3.182,3.904-3.182
					c0.685,0,1.354,0.18,1.944,0.51c-0.001-0.385,0.035-0.772,0.107-1.159c0.476-2.562,2.62-4.573,5.215-4.89
					c1.685-0.209,3.32,0.267,4.615,1.328c1.004,0.823,1.716,1.951,2.038,3.193c1.012-0.916,2.319-1.425,3.714-1.425
					c3.067,0,5.562,2.496,5.562,5.563c0,0.083-0.002,0.166-0.007,0.249c2.254,0.672,3.848,2.777,3.848,5.164
					C52.132,71.982,49.715,74.4,46.743,74.4z" style="fill:#472B29;"></path>
			</g>
                <g>
				<path d="M32.148,63.131c-1.808-0.119-3.365,1.13-3.476,2.789c-0.014,0.206-0.005,0.409,0.025,0.606
					c-0.349-0.394-0.865-0.661-1.458-0.7c-1.085-0.071-2.022,0.645-2.158,1.62c-0.197-0.054-0.403-0.09-0.616-0.104
					c-1.582-0.104-2.944,0.989-3.042,2.441" style="fill:#FDFCEF;"></path>
                    <path d="M21.423,70.033c-0.006,0-0.011,0-0.017,0c-0.138-0.009-0.242-0.128-0.232-0.266
					c0.105-1.587,1.587-2.793,3.308-2.674c0.135,0.009,0.271,0.027,0.408,0.053c0.273-0.968,1.256-1.637,2.365-1.568
					c0.425,0.028,0.823,0.16,1.163,0.382c0.001-0.019,0.002-0.037,0.004-0.056c0.119-1.794,1.809-3.147,3.742-3.022
					c0.138,0.009,0.242,0.128,0.232,0.266c-0.008,0.137-0.104,0.253-0.266,0.233c-1.657-0.105-3.108,1.038-3.211,2.556
					c-0.012,0.182-0.004,0.368,0.023,0.553c0.017,0.109-0.041,0.216-0.142,0.263c-0.102,0.045-0.22,0.022-0.293-0.061
					c-0.317-0.359-0.786-0.583-1.287-0.616c-0.929-0.061-1.774,0.555-1.893,1.405c-0.011,0.071-0.051,0.134-0.11,0.174
					s-0.135,0.052-0.203,0.033c-0.189-0.051-0.38-0.084-0.567-0.096c-1.447-0.094-2.688,0.896-2.776,2.208
					C21.664,69.932,21.554,70.033,21.423,70.033z" style="fill:#472B29;"></path>
			</g>
                <g>
				<path d="M48.723,64.8c-1.699-0.801-3.664-0.234-4.389,1.267c-0.09,0.186-0.157,0.379-0.201,0.574"
                      style="fill:#FDFCEF;"></path>
                    <path d="M44.132,66.89c-0.019,0-0.037-0.002-0.057-0.006c-0.134-0.031-0.218-0.165-0.187-0.3
					c0.05-0.217,0.123-0.428,0.219-0.626c0.783-1.622,2.899-2.243,4.721-1.384c0.125,0.059,0.179,0.208,0.12,0.333
					c-0.06,0.125-0.21,0.178-0.333,0.12c-1.573-0.74-3.393-0.226-4.057,1.15c-0.08,0.165-0.142,0.34-0.184,0.521
					C44.349,66.812,44.247,66.89,44.132,66.89z" style="fill:#472B29;"></path>
			</g>
		</g>
            <g>
			<g>
				<path d="M18.348,48.043H8.317c-0.276,0-0.5-0.224-0.5-0.5s0.224-0.5,0.5-0.5h10.031c0.276,0,0.5,0.224,0.5,0.5
					S18.625,48.043,18.348,48.043z" style="fill:#FFFFFF;"></path>
                <path d="M21.229,48.043h-1.446c-0.276,0-0.5-0.224-0.5-0.5s0.224-0.5,0.5-0.5h1.446c0.276,0,0.5,0.224,0.5,0.5
					S21.506,48.043,21.229,48.043z" style="fill:#FFFFFF;"></path>
                <path d="M25.284,48.043h-2.546c-0.276,0-0.5-0.224-0.5-0.5s0.224-0.5,0.5-0.5h2.546c0.276,0,0.5,0.224,0.5,0.5
					S25.56,48.043,25.284,48.043z" style="fill:#FFFFFF;"></path>
			</g>
                <g>
				<path d="M25.284,49.908h-9.616c-0.276,0-0.5-0.224-0.5-0.5s0.224-0.5,0.5-0.5h9.616c0.276,0,0.5,0.224,0.5,0.5
					S25.56,49.908,25.284,49.908z" style="fill:#FFFFFF;"></path>
                    <path d="M13.935,49.908h-0.579c-0.276,0-0.5-0.224-0.5-0.5s0.224-0.5,0.5-0.5h0.579c0.276,0,0.5,0.224,0.5,0.5
					S14.212,49.908,13.935,49.908z" style="fill:#FFFFFF;"></path>
                    <path d="M11.559,49.908h-1.457c-0.276,0-0.5-0.224-0.5-0.5s0.224-0.5,0.5-0.5h1.457c0.276,0,0.5,0.224,0.5,0.5
					S11.836,49.908,11.559,49.908z" style="fill:#FFFFFF;"></path>
			</g>
                <path d="M20.695,46.179h-5.027c-0.276,0-0.5-0.224-0.5-0.5s0.224-0.5,0.5-0.5h5.027c0.276,0,0.5,0.224,0.5,0.5
				S20.971,46.179,20.695,46.179z" style="fill:#FFFFFF;"></path>
                <path d="M20.695,44.313h-1.258c-0.276,0-0.5-0.224-0.5-0.5s0.224-0.5,0.5-0.5h1.258c0.276,0,0.5,0.224,0.5,0.5
				S20.971,44.313,20.695,44.313z" style="fill:#FFFFFF;"></path>
                <path d="M17.426,51.773h-1.759c-0.276,0-0.5-0.224-0.5-0.5s0.224-0.5,0.5-0.5h1.759c0.276,0,0.5,0.224,0.5,0.5
				S17.703,51.773,17.426,51.773z" style="fill:#FFFFFF;"></path>
		</g>
            <g>
			<g>
				<path d="M71.526,21.766h-10.03c-0.276,0-0.5-0.224-0.5-0.5s0.224-0.5,0.5-0.5h10.03c0.276,0,0.5,0.224,0.5,0.5
					S71.802,21.766,71.526,21.766z" style="fill:#FFFFFF;"></path>
                <path d="M74.407,21.766h-1.445c-0.276,0-0.5-0.224-0.5-0.5s0.224-0.5,0.5-0.5h1.445c0.276,0,0.5,0.224,0.5,0.5
					S74.683,21.766,74.407,21.766z" style="fill:#FFFFFF;"></path>
                <path d="M78.462,21.766h-2.546c-0.276,0-0.5-0.224-0.5-0.5s0.224-0.5,0.5-0.5h2.546c0.276,0,0.5,0.224,0.5,0.5
					S78.738,21.766,78.462,21.766z" style="fill:#FFFFFF;"></path>
			</g>
                <g>
				<path d="M76.435,18.036h-9.616c-0.276,0-0.5-0.224-0.5-0.5s0.224-0.5,0.5-0.5h9.616c0.276,0,0.5,0.224,0.5,0.5
					S76.712,18.036,76.435,18.036z" style="fill:#FFFFFF;"></path>
                    <path d="M65.088,18.036h-0.58c-0.276,0-0.5-0.224-0.5-0.5s0.224-0.5,0.5-0.5h0.58c0.276,0,0.5,0.224,0.5,0.5
					S65.364,18.036,65.088,18.036z" style="fill:#FFFFFF;"></path>
                    <path d="M62.711,18.036h-1.456c-0.276,0-0.5-0.224-0.5-0.5s0.224-0.5,0.5-0.5h1.456c0.276,0,0.5,0.224,0.5,0.5
					S62.987,18.036,62.711,18.036z" style="fill:#FFFFFF;"></path>
			</g>
                <path d="M73.873,19.901h-5.027c-0.276,0-0.5-0.224-0.5-0.5s0.224-0.5,0.5-0.5h5.027c0.276,0,0.5,0.224,0.5,0.5
				S74.149,19.901,73.873,19.901z" style="fill:#FFFFFF;"></path>
                <path d="M73.873,18.036h-1.257c-0.276,0-0.5-0.224-0.5-0.5s0.224-0.5,0.5-0.5h1.257c0.276,0,0.5,0.224,0.5,0.5
				S74.149,18.036,73.873,18.036z" style="fill:#FFFFFF;"></path>
                <path d="M67.39,19.901h-1.759c-0.276,0-0.5-0.224-0.5-0.5s0.224-0.5,0.5-0.5h1.759c0.276,0,0.5,0.224,0.5,0.5
				S67.667,19.901,67.39,19.901z" style="fill:#FFFFFF;"></path>
		</g>
            <g>
			<g>
				<g>
					<path d="M68.392,71.845H36.481c-3.048,0-5.542-2.494-5.542-5.542V34.393c0-3.048,2.494-5.542,5.542-5.542h31.911
						c3.048,0,5.542,2.494,5.542,5.542v31.911C73.934,69.352,71.44,71.845,68.392,71.845z"
                          style="fill:#FDFCEE;"></path>
                    <path d="M68.391,72.546h-31.91c-3.441,0-6.242-2.8-6.242-6.242V34.393c0-3.442,2.801-6.242,6.242-6.242h31.91
						c3.441,0,6.242,2.8,6.242,6.242v31.911C74.633,69.745,71.833,72.546,68.391,72.546z M36.481,29.551
						c-2.67,0-4.842,2.172-4.842,4.842v31.911c0,2.67,2.172,4.842,4.842,4.842h31.91c2.67,0,4.842-2.172,4.842-4.842V34.393
						c0-2.67-2.172-4.842-4.842-4.842H36.481z" style="fill:#472B29;"></path>
				</g>
                <rect x="31.627" y="35.49" width="41.617" height="31.614" style="fill:#C0E5E4;"></rect>
                <g>
					<path d="M64.765,35.99h-3.793c-0.276,0-0.5-0.224-0.5-0.5s0.224-0.5,0.5-0.5h3.793c0.276,0,0.5,0.224,0.5,0.5
						S65.042,35.99,64.765,35.99z" style="fill:#472B29;"></path>
                    <path d="M59.075,35.99H31.256c-0.276,0-0.5-0.224-0.5-0.5s0.224-0.5,0.5-0.5h27.819c0.276,0,0.5,0.224,0.5,0.5
						S59.351,35.99,59.075,35.99z" style="fill:#472B29;"></path>
                    <path d="M73.618,35.99h-5.69c-0.276,0-0.5-0.224-0.5-0.5s0.224-0.5,0.5-0.5h5.69c0.276,0,0.5,0.224,0.5,0.5
						S73.894,35.99,73.618,35.99z" style="fill:#472B29;"></path>
				</g>
                <g>
					<path d="M73.618,67.603H38.842c-0.276,0-0.5-0.224-0.5-0.5s0.224-0.5,0.5-0.5h34.775c0.276,0,0.5,0.224,0.5,0.5
						S73.894,67.603,73.618,67.603z" style="fill:#472B29;"></path>
                    <path d="M36.946,67.603h-5.69c-0.276,0-0.5-0.224-0.5-0.5s0.224-0.5,0.5-0.5h5.69c0.276,0,0.5,0.224,0.5,0.5
						S37.222,67.603,36.946,67.603z" style="fill:#472B29;"></path>
				</g>
                <g>
					<circle cx="36.313" cy="32.329" r="1.265" style="fill:#EE3E54;"></circle>
                    <path d="M36.313,33.893c-0.862,0-1.564-0.702-1.564-1.564c0-0.863,0.702-1.564,1.564-1.564
						s1.564,0.702,1.564,1.564C37.878,33.191,37.175,33.893,36.313,33.893z M36.313,31.364c-0.532,0-0.965,0.433-0.965,0.965
						c0,0.532,0.433,0.965,0.965,0.965s0.965-0.433,0.965-0.965C37.278,31.797,36.845,31.364,36.313,31.364z"
                          style="fill:#472B29;"></path>
				</g>
                <g>
					<circle cx="40.739" cy="32.329" r="1.265" style="fill:#F1BC19;"></circle>
                    <path d="M40.739,33.893c-0.862,0-1.564-0.702-1.564-1.564c0-0.863,0.702-1.564,1.564-1.564
						s1.564,0.702,1.564,1.564C42.303,33.191,41.601,33.893,40.739,33.893z M40.739,31.364c-0.532,0-0.965,0.433-0.965,0.965
						c0,0.532,0.433,0.965,0.965,0.965s0.965-0.433,0.965-0.965C41.704,31.797,41.271,31.364,40.739,31.364z"
                          style="fill:#472B29;"></path>
				</g>
                <g>
					<circle cx="45.165" cy="32.329" r="1.265" style="fill:#88AE45;"></circle>
                    <path d="M45.165,33.893c-0.862,0-1.563-0.702-1.563-1.564c0-0.863,0.701-1.564,1.563-1.564
						s1.564,0.702,1.564,1.564C46.729,33.191,46.027,33.893,45.165,33.893z M45.165,31.364c-0.531,0-0.964,0.433-0.964,0.965
						c0,0.532,0.433,0.965,0.964,0.965c0.532,0,0.965-0.433,0.965-0.965C46.13,31.797,45.697,31.364,45.165,31.364z"
                          style="fill:#472B29;"></path>
				</g>
			</g>
		</g>
            <g>
			<g>
				<g>
					<path d="M78.321,76.86c1.883,0,3.517,0,3.54,0c2.11,0,3.821-1.674,3.821-3.739c0-1.802-1.302-3.305-3.035-3.66
						c0.02-0.158,0.034-0.317,0.034-0.48c0-2.139-1.772-3.873-3.957-3.873c-1.29,0-2.433,0.607-3.155,1.543
						c-0.185-2.381-2.358-4.218-4.9-3.913c-1.859,0.223-3.397,1.629-3.739,3.431c-0.11,0.578-0.098,1.139,0.011,1.665
						c-0.498-0.525-1.208-0.856-1.998-0.856c-1.446,0-2.627,1.102-2.72,2.494c-0.657-0.142-1.371-0.133-2.123,0.143
						c-1.438,0.528-2.462,1.853-2.522,3.356c-0.085,2.133,1.657,3.889,3.818,3.889c0.164,0,0.741,0,0.874,0h7.934 M71.843,76.86
						h0.36" style="fill:#FDFCEF;"></path>
                    <path d="M81.861,77.36h-3.54c-0.276,0-0.5-0.224-0.5-0.5s0.224-0.5,0.5-0.5h3.54c1.831,0,3.32-1.453,3.32-3.239
						c0-1.524-1.108-2.857-2.636-3.17c-0.257-0.052-0.429-0.294-0.396-0.554c0.018-0.137,0.029-0.275,0.029-0.416
						c0-1.86-1.551-3.373-3.456-3.373c-1.093,0-2.099,0.491-2.76,1.348c-0.126,0.165-0.341,0.234-0.538,0.174
						c-0.198-0.059-0.34-0.234-0.355-0.44c-0.08-1.02-0.566-1.944-1.371-2.604c-0.828-0.68-1.884-0.985-2.972-0.852
						c-1.646,0.197-3.006,1.442-3.308,3.028c-0.094,0.494-0.09,0.989,0.01,1.471c0.046,0.219-0.06,0.441-0.258,0.544
						c-0.196,0.104-0.44,0.064-0.594-0.099c-0.429-0.452-1.01-0.7-1.636-0.7c-1.169,0-2.146,0.891-2.222,2.028
						c-0.01,0.145-0.082,0.278-0.198,0.366c-0.116,0.088-0.264,0.12-0.406,0.089c-0.64-0.138-1.243-0.098-1.845,0.124
						c-1.263,0.464-2.145,1.632-2.194,2.906c-0.035,0.875,0.282,1.708,0.894,2.344c0.635,0.661,1.495,1.025,2.424,1.025h8.808
						c0.276,0,0.5,0.224,0.5,0.5s-0.224,0.5-0.5,0.5h-8.808c-1.186,0-2.332-0.485-3.146-1.332c-0.802-0.835-1.218-1.928-1.172-3.077
						c0.066-1.674,1.212-3.203,2.849-3.805c0.61-0.225,1.24-0.306,1.881-0.245c0.345-1.396,1.63-2.424,3.136-2.424
						c0.499,0,0.979,0.11,1.413,0.319c0.009-0.24,0.036-0.481,0.082-0.721c0.382-2.01,2.098-3.586,4.171-3.835
						c1.364-0.162,2.685,0.218,3.726,1.072c0.747,0.614,1.278,1.41,1.547,2.302c0.79-0.648,1.785-1.006,2.843-1.006
						c2.457,0,4.456,1.961,4.456,4.373c0,0.034,0,0.068-0.001,0.102c1.764,0.555,3.003,2.188,3.003,4.038
						C86.181,75.458,84.243,77.36,81.861,77.36z M72.203,77.36h-0.359c-0.276,0-0.5-0.224-0.5-0.5s0.224-0.5,0.5-0.5h0.359
						c0.276,0,0.5,0.224,0.5,0.5S72.479,77.36,72.203,77.36z" style="fill:#472B29;"></path>
				</g>
                <path d="M80.153,71.557c-0.019,0-0.037-0.002-0.056-0.006c-0.135-0.031-0.219-0.165-0.188-0.3
					c0.039-0.168,0.097-0.33,0.171-0.479c0.604-1.225,2.275-1.674,3.721-1.006c0.126,0.058,0.181,0.207,0.122,0.332
					c-0.058,0.125-0.209,0.179-0.331,0.122c-1.208-0.558-2.579-0.209-3.063,0.774c-0.058,0.114-0.102,0.238-0.131,0.369
					C80.37,71.479,80.267,71.557,80.153,71.557z" style="fill:#472B29;"></path>
			</g>
                <g>
				<path d="M74.995,77.36h-1.107c-0.276,0-0.5-0.224-0.5-0.5s0.224-0.5,0.5-0.5h1.107c0.276,0,0.5,0.224,0.5,0.5
					S75.271,77.36,74.995,77.36z" style="fill:#472B29;"></path>
			</g>
		</g>
            <g>
			<g>
				<g>
					<polyline points="50.631,46.728 40.143,58.419 40.255,61.637 43.731,61.637 43.847,61.509 43.262,59.866
						44.715,59.752 44.414,58.582 45.867,58.467 45.566,57.298 47.583,57.344 54.219,49.946 					"
                              style="fill:#A2B3CB;"></polyline>
                    <path d="M43.731,62.138h-3.477c-0.27,0-0.49-0.213-0.5-0.483l-0.111-3.219c-0.004-0.129,0.042-0.255,0.128-0.351
						l10.487-11.691c0.186-0.205,0.501-0.222,0.706-0.038s0.223,0.5,0.038,0.706L40.65,58.602l0.088,2.535h2.445l-0.393-1.104
						c-0.053-0.147-0.033-0.31,0.051-0.44c0.085-0.13,0.226-0.214,0.381-0.227l0.859-0.067l-0.152-0.594
						c-0.037-0.143-0.009-0.295,0.077-0.415s0.221-0.196,0.368-0.208l0.859-0.068l-0.152-0.593
						c-0.039-0.152-0.005-0.313,0.093-0.436c0.097-0.123,0.24-0.197,0.403-0.189l1.786,0.041l6.483-7.226
						c0.186-0.205,0.501-0.222,0.706-0.038s0.223,0.5,0.038,0.706l-6.637,7.397c-0.097,0.109-0.244,0.164-0.384,0.166l-1.356-0.031
						l0.137,0.53c0.037,0.143,0.009,0.295-0.077,0.415s-0.221,0.196-0.368,0.208l-0.859,0.068l0.152,0.594
						c0.037,0.143,0.009,0.295-0.077,0.415s-0.221,0.196-0.368,0.208l-0.802,0.063l0.365,1.027c0.062,0.173,0.024,0.365-0.098,0.501
						l-0.115,0.129C44.009,62.077,43.874,62.138,43.731,62.138z" style="fill:#472B29;"></path>
				</g>
                <g>
					<path d="M64.192,37.53c-2.678-3.631-7.793-4.403-11.424-1.725c-3.631,2.678-4.403,7.793-1.725,11.424
						c2.678,3.631,7.793,4.403,11.424,1.725C66.098,46.276,66.87,41.161,64.192,37.53z M62.752,45.499l-8.587-7.703
						c2.262-1.478,5.268-1.362,7.319,0.479C63.536,40.115,63.977,43.09,62.752,45.499z"
                          style="fill:#88AE45;"></path>
                    <path d="M57.629,51.046c-2.662,0-5.29-1.218-6.988-3.52c-1.374-1.864-1.941-4.151-1.596-6.441
						c0.346-2.29,1.562-4.308,3.427-5.682c3.847-2.837,9.285-2.017,12.123,1.831l0,0c2.837,3.847,2.016,9.286-1.831,12.123
						C61.218,50.496,59.416,51.046,57.629,51.046z M57.607,34.713c-1.581,0-3.175,0.486-4.542,1.494
						c-1.649,1.216-2.726,3.001-3.031,5.027c-0.306,2.026,0.195,4.049,1.411,5.698c2.51,3.403,7.321,4.13,10.725,1.62
						s4.13-7.321,1.62-10.725l0,0C62.288,35.791,59.963,34.713,57.607,34.713z M62.752,45.998c-0.122,0-0.241-0.045-0.334-0.128
						l-8.587-7.703c-0.115-0.104-0.177-0.255-0.165-0.41c0.013-0.155,0.096-0.295,0.226-0.38c2.501-1.633,5.761-1.418,7.927,0.525
						c2.166,1.943,2.733,5.16,1.379,7.823c-0.07,0.139-0.201,0.236-0.354,0.265C62.813,45.995,62.782,45.998,62.752,45.998z
						 M55.012,37.884l7.56,6.781c0.789-2.125,0.247-4.522-1.422-6.019C59.482,37.15,57.041,36.87,55.012,37.884z"
                          style="fill:#472B29;"></path>
				</g>
                <path d="M40.384,61.042c-0.06,0-0.119-0.021-0.167-0.064c-0.103-0.092-0.111-0.25-0.02-0.353l7.094-7.907
					c0.095-0.103,0.251-0.111,0.354-0.019s0.111,0.25,0.02,0.353l-7.094,7.907C40.521,61.014,40.453,61.042,40.384,61.042z"
                      style="fill:#472B29;"></path>
                <path d="M48.257,52.266c-0.06,0-0.119-0.021-0.167-0.064c-0.103-0.092-0.111-0.25-0.02-0.353l0.73-0.814
					c0.094-0.103,0.251-0.111,0.354-0.019c0.103,0.092,0.111,0.25,0.02,0.353l-0.73,0.814
					C48.394,52.238,48.326,52.266,48.257,52.266z" style="fill:#472B29;"></path>
                <path d="M49.703,50.655c-0.06,0-0.119-0.021-0.167-0.064c-0.103-0.092-0.111-0.25-0.02-0.353l0.105-0.118
					c0.094-0.103,0.251-0.11,0.354-0.019c0.103,0.092,0.111,0.25,0.02,0.353l-0.105,0.118C49.84,50.627,49.771,50.655,49.703,50.655
					z" style="fill:#472B29;"></path>
                <path d="M63.09,41.465c-0.013,0-0.025,0-0.038-0.001c-0.964-0.071-1.757-0.428-2.57-1.159
					c-0.927-0.832-1.476-1.975-1.543-3.218s0.354-2.439,1.186-3.367c0.831-0.927,1.975-1.475,3.219-1.542
					c1.237-0.071,2.439,0.354,3.366,1.185c1.914,1.717,2.074,4.671,0.357,6.585c-0.24,0.268-0.51,0.506-0.801,0.71
					c-0.227,0.157-0.538,0.104-0.697-0.123c-0.158-0.226-0.103-0.538,0.123-0.696c0.229-0.16,0.441-0.349,0.631-0.559
					c1.349-1.503,1.223-3.824-0.281-5.173c-0.729-0.653-1.66-0.984-2.645-0.931c-0.977,0.053-1.875,0.483-2.528,1.211
					c-0.653,0.728-0.983,1.667-0.931,2.645s0.483,1.875,1.212,2.528c0.655,0.588,1.228,0.851,1.977,0.906
					c0.275,0.02,0.481,0.26,0.462,0.535C63.569,41.265,63.349,41.465,63.09,41.465z"
                      style="fill:#472B29;"></path>
			</g>
                <g>
				<path d="M54.98,60.164h-4.669c-0.207,0-0.375-0.168-0.375-0.375s0.168-0.375,0.375-0.375h4.669
					c0.207,0,0.375,0.168,0.375,0.375S55.187,60.164,54.98,60.164z" style="fill:#472B29;"></path>
                    <path d="M52.645,62.79c-0.207,0-0.375-0.168-0.375-0.375v-5.252c0-0.207,0.168-0.375,0.375-0.375
					s0.375,0.168,0.375,0.375v5.252C53.02,62.622,52.852,62.79,52.645,62.79z"
                          style="fill:#472B29;"></path>
                    <path d="M54.407,61.926c-0.096,0-0.192-0.037-0.266-0.11l-3.523-3.523c-0.146-0.146-0.146-0.384,0-0.53
					c0.146-0.146,0.385-0.146,0.531,0l3.523,3.523c0.146,0.146,0.146,0.384,0,0.53C54.599,61.89,54.503,61.926,54.407,61.926z"
                          style="fill:#472B29;"></path>
                    <path d="M50.883,61.926c-0.096,0-0.192-0.037-0.266-0.11c-0.146-0.146-0.146-0.384,0-0.53l3.523-3.523
					c0.146-0.146,0.385-0.146,0.531,0c0.146,0.146,0.146,0.384,0,0.53l-3.523,3.523C51.076,61.89,50.979,61.926,50.883,61.926z"
                          style="fill:#472B29;"></path>
			</g>
                <g>
				<path d="M61.624,60.164h-4.669c-0.207,0-0.375-0.168-0.375-0.375s0.168-0.375,0.375-0.375h4.669
					c0.207,0,0.375,0.168,0.375,0.375S61.831,60.164,61.624,60.164z" style="fill:#472B29;"></path>
                    <path d="M59.289,62.79c-0.207,0-0.375-0.168-0.375-0.375v-5.252c0-0.207,0.168-0.375,0.375-0.375
					s0.375,0.168,0.375,0.375v5.252C59.664,62.622,59.496,62.79,59.289,62.79z"
                          style="fill:#472B29;"></path>
                    <path d="M61.051,61.926c-0.096,0-0.192-0.037-0.265-0.11l-3.524-3.523c-0.146-0.146-0.147-0.384-0.001-0.53
					s0.386-0.146,0.53,0l3.524,3.523c0.146,0.146,0.147,0.384,0.001,0.53C61.244,61.89,61.147,61.926,61.051,61.926z"
                          style="fill:#472B29;"></path>
                    <path d="M57.527,61.926c-0.096,0-0.192-0.037-0.266-0.11c-0.146-0.146-0.146-0.384,0.001-0.53l3.524-3.523
					c0.145-0.146,0.384-0.146,0.53,0s0.146,0.384-0.001,0.53l-3.524,3.523C57.719,61.89,57.623,61.926,57.527,61.926z"
                          style="fill:#472B29;"></path>
			</g>
                <g>
				<path d="M68.845,60.14h-5.252c-0.207,0-0.375-0.168-0.375-0.375s0.168-0.375,0.375-0.375h5.252
					c0.207,0,0.375,0.168,0.375,0.375S69.052,60.14,68.845,60.14z" style="fill:#472B29;"></path>
                    <path d="M66.219,62.766c-0.207,0-0.375-0.168-0.375-0.375v-5.252c0-0.207,0.168-0.375,0.375-0.375
					s0.375,0.168,0.375,0.375v5.252C66.594,62.598,66.426,62.766,66.219,62.766z"
                          style="fill:#472B29;"></path>
                    <path d="M67.981,61.902c-0.096,0-0.192-0.037-0.266-0.11l-3.523-3.523c-0.146-0.146-0.146-0.384,0-0.53
					c0.146-0.146,0.385-0.146,0.531,0l3.523,3.523c0.146,0.146,0.146,0.384,0,0.53C68.173,61.865,68.077,61.902,67.981,61.902z"
                          style="fill:#472B29;"></path>
                    <path d="M64.458,61.902c-0.096,0-0.192-0.037-0.266-0.11c-0.146-0.146-0.146-0.384,0-0.53l3.523-3.523
					c0.146-0.146,0.385-0.146,0.531,0c0.146,0.146,0.146,0.384,0,0.53l-3.523,3.523C64.65,61.865,64.553,61.902,64.458,61.902z"
                          style="fill:#472B29;"></path>
			</g>
		</g>
	</g>
</g>
    <g id="blue_print">
	<g id="Layer_90">
	</g>
</g>
    <g id="paint_1_">
	<g id="paint">
	</g>
</g>
    <g id="pantone">
	<g id="color_pallette">
	</g>
</g>
    <g id="paint_roller">
	<g id="roller">
	</g>
</g>
    <g id="bézier_curve">
	<g id="scissors">
	</g>
</g>
    <g id="microsoft_explorer">
</g>
    <g id="microsoft_visio">
</g>
    <g id="microsoft_acces">
</g>
    <g id="microsoft_note">
</g>
    <g id="microsoft_outlook">
</g>
    <g id="adobe_reader_pdf">
</g>
    <g id="microsoft_powerpint">
</g>
    <g id="microsoft_exel">
	<g id="exel">
	</g>
</g>
    <g id="microsoft_word">
</g>
    <g id="microsoft_office">
</g>
    <g id="adobe_bridge">
</g>
    <g id="adobe_muse">
</g>
    <g id="adobe_flash">
</g>
    <g id="adobe_premiere">
</g>
    <g id="adobe_after_efects">
</g>
    <g id="adobe_dreamweaver">
</g>
    <g id="adobe_indesign">
</g>
    <g id="adobe_lightroom">
</g>
    <g id="adobe_illustrator">
</g>
    <g id="adobe_photoshop">
</g>
</svg>